<?xml version="1.0" encoding="UTF-8" standalone="no"?>
<!-- Created with Inkscape (http://www.inkscape.org/) -->

<svg
   xmlns:dc="http://purl.org/dc/elements/1.1/"
   xmlns:cc="http://creativecommons.org/ns#"
   xmlns:rdf="http://www.w3.org/1999/02/22-rdf-syntax-ns#"
   xmlns:svg="http://www.w3.org/2000/svg"
   xmlns="http://www.w3.org/2000/svg"
   xmlns:sodipodi="http://sodipodi.sourceforge.net/DTD/sodipodi-0.dtd"
   xmlns:inkscape="http://www.inkscape.org/namespaces/inkscape"
   width="162.03841mm"
   height="162.03841mm"
   viewBox="0 0 162.03841 162.03841"
   version="1.1"
   id="svg8"
   inkscape:version="0.92.1 r15371"
   sodipodi:docname="favicon_cx.svg">
  <defs
     id="defs2" />
  <sodipodi:namedview
     id="base"
     pagecolor="#ffffff"
     bordercolor="#666666"
     borderopacity="1.0"
     inkscape:pageopacity="0.0"
     inkscape:pageshadow="2"
     inkscape:zoom="0.98994949"
     inkscape:cx="179.23118"
     inkscape:cy="254.45544"
     inkscape:document-units="mm"
     inkscape:current-layer="layer1"
     showgrid="false"
     inkscape:window-width="1920"
     inkscape:window-height="1013"
     inkscape:window-x="-9"
     inkscape:window-y="-9"
     inkscape:window-maximized="1"
     fit-margin-top="0"
     fit-margin-left="0"
     fit-margin-right="0"
     fit-margin-bottom="0" />
  <metadata
     id="metadata5">
    <rdf:RDF>
      <cc:Work
         rdf:about="">
        <dc:format>image/svg+xml</dc:format>
        <dc:type
           rdf:resource="http://purl.org/dc/dcmitype/StillImage" />
        <dc:title></dc:title>
      </cc:Work>
    </rdf:RDF>
  </metadata>
  <g
     inkscape:label="Capa 1"
     inkscape:groupmode="layer"
     id="layer1"
     transform="translate(-23.980799,-67.480799)">
    <rect
       style="opacity:1;vector-effect:none;fill:#ffffff;fill-opacity:1;stroke:#4d8e0e;stroke-width:14.47000027;stroke-linecap:round;stroke-linejoin:miter;stroke-miterlimit:4;stroke-dasharray:none;stroke-dashoffset:0;stroke-opacity:1"
       id="rect4487"
       width="147.87581"
       height="147.87581"
       x="31.062098"
       y="74.562096"
       rx="14.897637"
       ry="10.621325" />
    <g
       aria-label="Cx"
       style="font-style:normal;font-variant:normal;font-weight:normal;font-stretch:condensed;font-size:94.9992981px;line-height:1.25;font-family:'Franklin Gothic Demi Cond';-inkscape-font-specification:'Franklin Gothic Demi Cond, Condensed';font-variant-ligatures:normal;font-variant-caps:normal;font-variant-numeric:normal;font-feature-settings:normal;text-align:start;letter-spacing:0px;word-spacing:0px;writing-mode:lr-tb;text-anchor:start;fill:#000000;fill-opacity:1;stroke:none;stroke-width:0.24458508"
       id="text4515"
       transform="matrix(1.0817638,0,0,1.0817638,-8.5851983,-11.990493)">
      <path
         d="m 100.23371,179.94477 v -11.87491 q 0,0 -1.424992,0.19 -1.32999,0.18999 -3.514974,0.47499 -2.089985,0.285 -4.749965,0.475 -2.564981,0.19 -5.034963,0.19 -5.129962,0 -9.119933,-1.045 -3.98997,-1.04499 -6.74495,-3.51497 -2.65998,-2.46998 -4.08497,-6.45995 -1.424989,-4.08497 -1.424989,-10.06993 0,-5.98495 1.424989,-9.97492 1.42499,-4.08497 4.08497,-6.55495 2.75498,-2.46999 6.74495,-3.51498 3.989971,-1.04499 9.119933,-1.04499 2.469982,0 4.939964,0.19 2.564981,0.19 4.559966,0.47499 1.994985,0.285 3.229976,0.475 1.32999,0.19 1.32999,0.19 v -12.34991 q -4.654965,-1.13999 -9.689928,-1.42499 -4.939964,-0.38 -9.689929,-0.38 -8.264939,0 -14.81989,2.37499 -6.459952,2.37498 -11.019919,6.83995 -4.559966,4.46496 -7.029948,10.92491 -2.374982,6.36496 -2.374982,14.3449 0,7.88494 2.65998,14.15489 2.65998,6.26996 7.409945,10.63993 4.844965,4.36996 11.399916,6.64995 6.554952,2.27998 14.344894,2.27998 4.939964,0 9.784928,-0.665 4.939963,-0.66499 9.689931,-1.99498 z"
         style="font-style:normal;font-variant:normal;font-weight:normal;font-stretch:normal;font-family:SignaColumn-Black;-inkscape-font-specification:SignaColumn-Black;stroke-width:0.24458508"
         id="path4540"
         inkscape:connector-curvature="0" />
      <path
         d="m 122.0212,181.74976 10.44993,-19.94986 h 0.94999 l 10.73492,19.94986 h 20.89984 l -18.61986,-26.59981 16.33988,-23.27483 h -20.04485 l -9.30993,18.42987 h -0.855 l -9.49993,-18.42987 h -19.56985 l 15.86488,23.36983 -18.33486,26.50481 z"
         style="font-style:normal;font-variant:normal;font-weight:normal;font-stretch:normal;font-family:SignaColumn-Black;-inkscape-font-specification:SignaColumn-Black;stroke-width:0.24458508"
         id="path4542"
         inkscape:connector-curvature="0" />
    </g>
    <g
       aria-label="Cx"
       style="font-style:normal;font-variant:normal;font-weight:normal;font-stretch:condensed;font-size:94.9992981px;line-height:1.25;font-family:'Franklin Gothic Demi Cond';-inkscape-font-specification:'Franklin Gothic Demi Cond, Condensed';font-variant-ligatures:normal;font-variant-caps:normal;font-variant-numeric:normal;font-feature-settings:normal;text-align:start;letter-spacing:0px;word-spacing:0px;writing-mode:lr-tb;text-anchor:start;fill:#ff5200;fill-opacity:1;stroke:none;stroke-width:0.24458508"
       id="text4515-7"
       transform="matrix(1.0817638,0,0,1.0817638,-8.5851983,-11.990493)">
      <path
         d="m 100.23371,176.24065 v -11.87491 q 0,0 -1.424992,0.19 -1.32999,0.19 -3.514974,0.475 -2.089985,0.28499 -4.749965,0.47499 -2.564981,0.19 -5.034963,0.19 -5.129962,0 -9.119933,-1.04499 -3.98997,-1.04499 -6.74495,-3.51498 -2.65998,-2.46998 -4.08497,-6.45995 -1.424989,-4.08497 -1.424989,-10.06992 0,-5.98496 1.424989,-9.97493 1.42499,-4.08497 4.08497,-6.55495 2.75498,-2.46998 6.74495,-3.51498 3.989971,-1.04499 9.119933,-1.04499 2.469982,0 4.939964,0.19 2.564981,0.19 4.559966,0.475 1.994985,0.28499 3.229976,0.47499 1.32999,0.19 1.32999,0.19 v -12.34991 q -4.654965,-1.13999 -9.689928,-1.42499 -4.939964,-0.37999 -9.689929,-0.37999 -8.264939,0 -14.81989,2.37498 -6.459952,2.37498 -11.019919,6.83995 -4.559966,4.46497 -7.029948,10.92492 -2.374982,6.36495 -2.374982,14.34489 0,7.88494 2.65998,14.1549 2.65998,6.26995 7.409945,10.63992 4.844965,4.36997 11.399916,6.64995 6.554952,2.27998 14.344894,2.27998 4.939964,0 9.784928,-0.66499 4.939963,-0.665 9.689931,-1.99499 z"
         style="font-style:normal;font-variant:normal;font-weight:normal;font-stretch:normal;font-family:SignaColumn-Black;-inkscape-font-specification:SignaColumn-Black;fill:#ff5200;fill-opacity:1;stroke-width:0.24458508"
         id="path4535"
         inkscape:connector-curvature="0" />
      <path
         d="m 122.0212,178.04564 10.44993,-19.94985 h 0.94999 l 10.73492,19.94985 h 20.89984 l -18.61986,-26.5998 16.33988,-23.27483 h -20.04485 l -9.30993,18.42986 h -0.855 l -9.49993,-18.42986 h -19.56985 l 15.86488,23.36982 -18.33486,26.50481 z"
         style="font-style:normal;font-variant:normal;font-weight:normal;font-stretch:normal;font-family:SignaColumn-Black;-inkscape-font-specification:SignaColumn-Black;fill:#ff5200;fill-opacity:1;stroke-width:0.24458508"
         id="path4537"
         inkscape:connector-curvature="0" />
    </g>
  </g>
</svg>
